# xmcd CD database file
# Copyright (C) 1995 Ti Kan
#
# Track frame offsets:
#	150
#	19299
#	42339
#	59113
#	81071
#	100316
#	117954
#	136287
#	154015
#	178909
#	195205
#	214074
#	228140
#	248126
#	270673
#
# Disc length: 3886 seconds
#
# Revision: 1
# Processed by: cddbd v1.4PL0 Copyright (c) Steve Scherf et al.
# Submitted via: NotifyCDPlayer(CDDB) 1.60beta5_freedb
#
DISCID=cd0f2c0f
DTITLE=2 PAC - 2Pac - UNTIL THE END OF TIME [CD1]
DYEAR=1900
DGENRE=
TTITLE0=BALLAD OF A DEAD SOULJA
TTITLE1=FUCK FRIENDZ
TTITLE2=LIL'HOMIES
TTITLE3=LET EM HAVE IT
TTITLE4=GOOD LIFE
TTITLE5=LETTER 2 MY UNBORN
TTITLE6=BREATHIN
TTITLE7=HAPPY HOME
TTITLE8=ALL OUT
TTITLE9=FUCKIN WIT THE WRONG NIGGA
TTITLE10=THUG N U THUG N ME REMIX
TTITLE11=EVERYTHING THEY OWE
TTITLE12=UNTIL THE END OF TIME
TTITLE13=M.O.B.
TTITLE14=WORLD WIDE MOB FIGGAZ
EXTD=
EXTT0=
EXTT1=
EXTT2=
EXTT3=
EXTT4=
EXTT5=
EXTT6=
EXTT7=
EXTT8=
EXTT9=
EXTT10=
EXTT11=
EXTT12=
EXTT13=
EXTT14=
PLAYORDER=
